<svg width="43" height="50" viewBox="0 0 43 50" fill="none" xmlns="http://www.w3.org/2000/svg">
<path d="M40.8181 10.9452L23.4725 0.541993C22.8494 0.186796 22.1446 0 21.4274 0C20.7103 0 20.0054 0.186796 19.3824 0.541993L2.03561 10.944C1.41048 11.3271 0.89471 11.865 0.538137 12.5056C0.181563 13.1462 -0.00376465 13.868 5.79579e-05 14.6011V35.3773C-0.00369246 36.1109 0.181637 36.8331 0.538177 37.4743C0.894716 38.1154 1.41044 38.6539 2.03561 39.0377L6.58434 41.754L6.61001 41.7685C8.9067 42.9437 9.78609 42.9437 10.805 42.9437C14.3917 42.9437 16.6203 40.6224 16.6203 36.885V16.7404C16.6224 16.4889 16.5247 16.2469 16.3485 16.0674C16.1724 15.8879 15.9322 15.7856 15.6807 15.7829H13.1831C12.9316 15.7856 12.6915 15.8879 12.5153 16.0674C12.3392 16.2469 12.2414 16.4889 12.2435 16.7404V36.885C12.2526 37.1734 12.187 37.4592 12.053 37.7148C11.9191 37.9704 11.7214 38.187 11.479 38.3436C10.8206 38.7453 9.86421 38.6605 8.78505 38.1037L4.42604 35.48C4.40935 35.4686 4.39573 35.4533 4.38638 35.4354C4.37704 35.4175 4.37226 35.3975 4.37247 35.3773V14.8946C4.37318 14.8711 4.37954 14.848 4.391 14.8275C4.40245 14.8069 4.41868 14.7893 4.43831 14.7763L21.3834 4.39771C21.396 4.39141 21.41 4.38814 21.4241 4.38814C21.4382 4.38814 21.4522 4.39141 21.4648 4.39771L38.4199 14.7763C38.4392 14.7904 38.4548 14.8089 38.4655 14.8302C38.4762 14.8516 38.4816 14.8752 38.4813 14.8991V35.3773C38.4817 35.3985 38.4774 35.4195 38.4687 35.4388C38.46 35.4581 38.4472 35.4752 38.4311 35.4889L21.4615 45.6053C21.4326 45.6153 21.4011 45.6153 21.3722 45.6053L17.0388 43.0318C16.9102 42.9477 16.7616 42.8992 16.6081 42.8912C16.4546 42.8831 16.3018 42.9159 16.165 42.9861L16.1271 43.0084C14.9308 43.717 14.6094 43.9012 13.5001 44.3052C13.3193 44.371 12.8941 44.5284 12.8573 44.9491C12.8204 45.3698 13.2244 45.6689 13.5838 45.8776L19.3757 49.4342C19.9928 49.8039 20.6986 49.9994 21.4179 50H21.4827C22.1841 49.989 22.8702 49.7939 23.4725 49.4342L40.8181 39.0411C41.443 38.656 41.9584 38.1168 42.3148 37.4753C42.6713 36.8337 42.8568 36.1113 42.8537 35.3773V14.6011C42.8572 13.8682 42.6717 13.1467 42.3152 12.5063C41.9586 11.8659 41.443 11.3282 40.8181 10.9452Z" fill="white"/>
<path d="M27.2166 31.9232C23.0551 31.9232 22.1679 30.7604 21.9045 28.8833C21.8748 28.6598 21.7659 28.4544 21.5976 28.3045C21.4292 28.1546 21.2126 28.0701 20.9872 28.0664H18.7775C18.5285 28.0717 18.2917 28.1754 18.1189 28.3548C17.9462 28.5343 17.8515 28.7749 17.8557 29.0239C17.8557 30.651 18.4271 35.962 27.221 35.962C29.9418 35.962 32.205 35.3259 33.764 34.1217C35.323 32.9176 36.1578 31.1655 36.1578 29.0775C36.1578 24.887 33.4236 23.7398 28.039 22.9898C22.5652 22.2287 22.5652 21.8415 22.5652 20.9933C22.5652 20.3829 22.5652 18.9533 26.5224 18.9533C29.338 18.9533 30.8457 19.3093 31.3278 21.1853C31.3705 21.3933 31.483 21.5804 31.6465 21.7158C31.8101 21.8512 32.015 21.9266 32.2273 21.9296H34.4448C34.5755 21.9283 34.7044 21.8992 34.8229 21.8442C34.9414 21.7891 35.0469 21.7095 35.1322 21.6105C35.3027 21.4114 35.3877 21.1532 35.3688 20.8918C35.082 16.9245 32.1816 14.9124 26.5258 14.9124C21.3856 14.9124 18.3177 17.228 18.3177 21.106C18.3177 25.3579 21.4972 26.5598 26.2736 27.0576C31.8535 27.6345 31.8535 28.476 31.8535 29.2192C31.8568 30.3776 31.3758 31.9232 27.2166 31.9232Z" fill="white"/>
</svg>
