<svg width="50" height="50" viewBox="0 0 50 50" fill="none" xmlns="http://www.w3.org/2000/svg">
<path d="M7.64413 10.5469L10.8031 45.6715L24.9785 49.4535L39.1934 45.743L42.3559 10.5469H7.64413ZM35.7852 18.5434L35.5871 20.8223L35.5 21.875H18.8715L19.2687 26.5625H35.1047L34.9988 27.434L33.9773 38.7266L33.9023 39.3867L25 41.7828V41.7809L24.9894 41.7856L16.0922 39.4746L15.4883 32.8125H19.8508L20.1598 36.1172L24.9977 37.3434L25 37.252V37.2567L29.8484 36.2219L30.3547 30.8594H15.2941L14.2262 18.8141L14.1219 17.5781H35.8891L35.7852 18.5434ZM10.9203 0.635559H13.1164V2.80587H15.1258V0.635559H17.3223V7.20665H15.1258V5.00626H13.1168V7.20665H10.9203V0.635559ZM20.2101 2.81486H18.2766V0.635559H24.341V2.81486H22.4066V7.20665H20.2101V2.81486ZM25.3035 0.635559H27.5934L29.0023 2.94454L30.4098 0.635559H32.7008V7.20665H30.5129V3.94962L29.0023 6.28595H28.9641L27.4523 3.94962V7.20665H25.3031V0.635559H25.3035ZM33.7941 0.635559H35.991V5.03478H39.0797V7.20704H33.7941V0.635559Z" fill="white"/>
</svg>
