<svg width="52" height="50" viewBox="0 0 52 50" fill="none" xmlns="http://www.w3.org/2000/svg">
<path d="M26 29.4082C28.4613 29.4082 30.4565 27.4346 30.4565 25C30.4565 22.5655 28.4613 20.5919 26 20.5919C23.5387 20.5919 21.5435 22.5655 21.5435 25C21.5435 27.4346 23.5387 29.4082 26 29.4082Z" fill="white"/>
<path d="M26 34.0313C39.2068 34.0313 49.913 29.9878 49.913 25C49.913 20.0122 39.2068 15.9688 26 15.9688C12.7932 15.9688 2.08694 20.0122 2.08694 25C2.08694 29.9878 12.7932 34.0313 26 34.0313Z" stroke="white" stroke-width="2.2033"/>
<path d="M18.0928 29.5155C24.6962 40.8287 33.5895 47.9782 37.9565 45.4842C42.3235 42.9903 40.5105 31.7974 33.9071 20.4842C27.3037 9.17104 18.4105 2.02159 14.0434 4.51551C9.67642 7.00942 11.4894 18.2023 18.0928 29.5155Z" stroke="white" stroke-width="2.2033"/>
<path d="M18.0928 20.4845C11.4893 31.7977 9.6764 42.9906 14.0434 45.4845C18.4104 47.9784 27.3037 40.8289 33.9071 29.5157C40.5105 18.2025 42.3235 7.00966 37.9565 4.51574C33.5894 2.02183 24.6962 9.17127 18.0928 20.4845Z" stroke="white" stroke-width="2.2033"/>
</svg>
