<svg width="50" height="50" viewBox="0 0 50 50" fill="none" xmlns="http://www.w3.org/2000/svg">
<path d="M16.9833 7.7312C18.8563 5.36454 22.3833 4.19579 24.7875 4.13537C31.5292 4.0062 34.3396 12.4958 34.5563 15.8708L37.6771 16.8166C36.9583 6.47079 30.5938 1.0437 24.5042 1.0437C18.7938 1.04162 13.5208 5.23745 11.3958 11.3895C8.49376 19.5916 10.3979 27.477 13.9563 33.7875C13.6458 34.1979 13.4583 34.9208 13.5208 35.6145C13.5813 37.5083 15.1729 39.0854 17.0792 39.0854H17.2042C19.2021 39.0229 20.7313 37.352 20.6375 35.3625C20.6375 33.4687 19.0146 31.8958 17.1104 31.8958H16.9833C16.8583 31.8958 16.6729 31.8958 16.5146 31.9562C13.925 27.5395 12.8313 22.8062 13.2396 17.7C13.4875 13.85 14.7375 10.5062 16.9833 7.7312Z" fill="white"/>
<path d="M1.9417 43.5376C4.03337 46.6918 8.31045 48.7084 12.9917 48.7084C14.2396 48.7084 15.5521 48.6168 16.8313 48.3001C24.948 46.723 31.098 41.8022 34.625 34.548L34.6542 34.4834C36.4646 34.3251 37.8688 32.7147 37.7771 30.7897C37.6813 28.8647 36.1209 27.3209 34.2188 27.3209H34.0917C32.1271 27.3855 30.5959 29.0563 30.6584 31.0459C30.7209 32.0543 31.1292 32.8751 31.6875 33.473C29.5042 37.7647 26.2271 40.9168 21.2625 43.5688C17.923 45.3334 14.3959 45.998 10.9625 45.5251C8.0917 45.1168 5.84587 43.8188 4.47087 41.7397C2.41253 38.5834 2.22504 35.1793 3.93962 31.773C5.1917 29.3126 7.06253 27.5147 8.31253 26.6293C8.00003 25.8105 7.62503 24.423 7.43753 23.3834C-1.80621 30.0688 -0.866632 39.2147 1.9417 43.5376Z" fill="white"/>
<path d="M48.8854 42.146C50.7562 38.3606 50.602 31.9897 45.825 26.5314L45.7958 26.5939C40.9604 20.8522 33.8416 17.6981 25.7229 17.6981H24.6604C24.1333 16.5314 22.9166 15.8043 21.5416 15.8043H21.4479C19.4833 15.8043 17.952 17.5106 18.0166 19.496C18.0791 21.3877 19.6708 22.9668 21.575 22.9668H21.7291C23.1354 22.9043 24.352 22.0189 24.85 20.7585H26.0062C30.8166 20.7585 35.3708 22.1772 39.525 24.9522C42.7062 27.0668 44.9875 29.8418 46.2666 33.1543C47.3875 35.8668 47.327 38.5168 46.1729 40.7272C44.3937 44.196 41.3958 46.0272 37.4333 46.0272C34.9354 46.0272 32.502 45.2377 31.252 44.671C30.5041 45.2981 29.2541 46.3397 28.3479 46.9731C31.0937 48.2314 33.8729 48.9585 36.5562 48.9585C42.6437 48.9585 47.1666 45.4918 48.8854 42.146Z" fill="white"/>
</svg>
