<svg width="67" height="50" viewBox="0 0 67 50" fill="none" xmlns="http://www.w3.org/2000/svg">
<path d="M57.407 28.7416C55.0811 28.7538 53.0597 29.314 51.367 30.142C50.746 28.9121 50.125 27.8162 50.0154 27.0125C49.8936 26.0748 49.7475 25.5025 49.8936 24.3822C50.0397 23.2619 50.6973 21.6666 50.6851 21.5449C50.6729 21.4231 50.539 20.8508 49.1995 20.8386C47.86 20.8264 46.7031 21.0943 46.5692 21.4474C46.4352 21.8006 46.1795 22.6043 46.009 23.4323C45.7777 24.6501 43.33 28.9974 41.9296 31.2745C41.4791 30.3856 41.0894 29.6062 41.0042 28.9852C40.8824 28.0475 40.7363 27.4752 40.8824 26.3549C41.0285 25.2346 41.6861 23.6394 41.6739 23.5176C41.6617 23.3958 41.5278 22.8235 40.1883 22.8113C38.8488 22.7991 37.6919 23.067 37.558 23.4202C37.424 23.7733 37.2779 24.6014 36.9978 25.4051C36.7178 26.2088 33.4664 33.4664 32.614 35.3417C32.1756 36.3037 31.7981 37.0709 31.5302 37.5945C31.5302 37.5945 31.518 37.6311 31.4815 37.692C31.2501 38.1425 31.1162 38.3861 31.1162 38.3861C31.1162 38.3861 31.1162 38.3861 31.1162 38.3982C30.9335 38.727 30.7387 39.0315 30.6413 39.0315C30.5682 39.0315 30.4343 38.1547 30.6656 36.9613C31.1527 34.4406 32.3096 30.5195 32.2974 30.3856C32.2974 30.3125 32.5166 29.6306 31.5424 29.2774C30.5926 28.9243 30.2516 29.5088 30.1664 29.5088C30.0811 29.5088 30.0202 29.7158 30.0202 29.7158C30.0202 29.7158 31.0797 25.3076 27.9988 25.3076C26.0748 25.3076 23.4201 27.4143 22.105 29.314C21.2769 29.7645 19.5112 30.7265 17.6237 31.7616C16.9053 32.1635 16.1625 32.5653 15.4684 32.9428C15.4197 32.8941 15.3709 32.8332 15.3222 32.7845C11.596 28.8025 4.70363 25.9896 4.99589 20.6437C5.10548 18.6954 5.77523 13.5809 18.2326 7.37048C28.4859 2.3169 36.6447 3.71729 38.0573 6.8225C40.0787 11.255 33.6856 19.4869 23.0914 20.6803C19.0485 21.1308 16.9296 19.5721 16.3938 18.9876C15.8337 18.3788 15.7484 18.3422 15.5414 18.464C15.2005 18.6467 15.4197 19.1946 15.5414 19.5112C15.858 20.3393 17.161 21.8006 19.3651 22.519C21.3135 23.1523 26.0504 23.5054 31.7859 21.2891C38.2034 18.805 43.2204 11.9004 41.747 6.11622C40.2735 0.246758 30.5317 -1.68943 21.3135 1.58626C15.8337 3.53463 9.89116 6.60331 5.61693 10.5975C0.538994 15.3466 -0.264708 19.4747 0.0640793 21.2039C1.24528 27.3413 9.7085 31.3354 13.0938 34.2945C12.9233 34.3919 12.765 34.4772 12.6311 34.5502C10.9384 35.3904 4.48444 38.7636 2.87704 42.3315C1.05044 46.3744 3.16929 49.2726 4.56968 49.6622C8.91698 50.8678 13.386 48.7002 15.785 45.1201C18.1839 41.54 17.8916 36.8883 16.7835 34.7572C16.7713 34.7329 16.7592 34.7085 16.7348 34.6842C17.1732 34.4284 17.6237 34.1605 18.0621 33.9048C18.9267 33.3934 19.7791 32.9185 20.5098 32.5288C20.0957 33.6613 19.7913 35.013 19.6452 36.9613C19.4625 39.2507 20.4002 42.2219 21.6301 43.3909C22.1781 43.9024 22.8235 43.9146 23.2375 43.9146C24.6744 43.9146 25.3198 42.7212 26.0383 41.3086C26.915 39.5794 27.7066 37.5702 27.7066 37.5702C27.7066 37.5702 26.7202 43.0013 29.3992 43.0013C30.3734 43.0013 31.3597 41.7348 31.7981 41.0894C31.7981 41.1016 31.7981 41.1016 31.7981 41.1016C31.7981 41.1016 31.8225 41.0651 31.8712 40.9798C31.9686 40.8215 32.0295 40.7241 32.0295 40.7241C32.0295 40.7241 32.0295 40.7119 32.0295 40.6998C32.4192 40.0178 33.2959 38.4713 34.5989 35.9019C36.2794 32.5897 37.899 28.4494 37.899 28.4494C37.899 28.4494 38.0451 29.4601 38.5443 31.1406C38.8366 32.1269 39.4455 33.2107 39.9326 34.258C39.5429 34.8059 39.2993 35.1104 39.2993 35.1104C39.2993 35.1104 39.2993 35.1104 39.3115 35.1225C38.9949 35.5366 38.6539 35.9871 38.2764 36.4255C36.9491 38.0086 35.3661 39.823 35.1469 40.3466C34.8912 40.9677 34.952 41.4182 35.4391 41.7835C35.7923 42.0514 36.4255 42.088 37.0709 42.0514C38.2643 41.9662 39.1045 41.6739 39.5185 41.4913C40.1639 41.2599 40.9189 40.9068 41.6252 40.3831C42.9282 39.4211 43.7197 38.0451 43.6466 36.2307C43.6101 35.2321 43.2813 34.2336 42.8795 33.296C43.0012 33.1255 43.1108 32.955 43.2326 32.7845C45.2906 29.7767 46.8858 26.4767 46.8858 26.4767C46.8858 26.4767 47.0319 27.4874 47.5312 29.1678C47.7747 30.0203 48.274 30.9457 48.7124 31.8469C46.7762 33.4177 45.5828 35.2443 45.1566 36.4377C44.3895 38.654 44.9861 39.6525 46.1186 39.8839C46.6301 39.9935 47.3607 39.7499 47.8965 39.5186C48.5784 39.2994 49.3821 38.9219 50.1493 38.3617C51.4523 37.3997 52.7066 36.0602 52.6335 34.2458C52.597 33.4177 52.3778 32.6018 52.0733 31.8103C53.7173 31.1284 55.8361 30.7509 58.5395 31.0675C64.3359 31.7494 65.4805 35.3661 65.2614 36.8883C65.0422 38.4104 63.8244 39.2385 63.4226 39.4942C63.0207 39.7499 62.8868 39.8352 62.9233 40.0178C62.972 40.2857 63.1669 40.2735 63.5078 40.2248C63.9827 40.1396 66.5521 38.9949 66.6617 36.1942C66.8444 32.614 63.4348 28.7051 57.407 28.7416ZM12.6919 43.8171C10.7679 45.9116 8.08892 46.7032 6.93208 46.0334C5.68999 45.3149 6.17708 42.2219 8.53948 40.0056C9.9764 38.654 11.8274 37.3997 13.0573 36.6325C13.3373 36.462 13.7514 36.2185 14.2506 35.9141C14.3359 35.8654 14.3846 35.841 14.3846 35.841C14.482 35.7801 14.5794 35.7192 14.6768 35.6583C15.5414 38.8244 14.7134 41.613 12.6919 43.8171ZM26.6958 34.2945C26.0261 35.9263 24.6257 40.1031 23.7733 39.8717C23.0426 39.6769 22.5921 36.5108 23.6272 33.3812C24.1508 31.8103 25.2589 29.935 25.9043 29.2044C26.9516 28.0354 28.1084 27.6457 28.3885 28.1206C28.7416 28.7416 27.1099 33.2716 26.6958 34.2945ZM38.2521 39.823C37.972 39.9691 37.7041 40.0665 37.5823 39.9935C37.4971 39.9448 37.7041 39.7499 37.7041 39.7499C37.7041 39.7499 39.1532 38.1912 39.7256 37.4849C40.0543 37.0709 40.444 36.5838 40.858 36.0358C40.858 36.0846 40.858 36.1454 40.858 36.1942C40.858 38.0573 39.0558 39.3115 38.2521 39.823ZM47.1659 37.7894C46.9589 37.6432 46.9954 37.1562 47.6895 35.634C47.9574 35.0373 48.5906 34.0388 49.6744 33.0768C49.7962 33.4664 49.8814 33.8439 49.8692 34.1971C49.8571 36.5473 48.1766 37.4241 47.1659 37.7894Z" fill="white"/>
</svg>
